<mxfile host="app.diagrams.net">
  <diagram name="TodoApp UML" id="todoapp-uml">
    <mxGraphModel dx="1000" dy="1000" grid="1" gridSize="10" guides="1" tooltips="1" connect="1" arrows="1" fold="1" page="1" pageScale="1" pageWidth="827" pageHeight="1169" math="0" shadow="0">
      <root>
        <mxCell id="0"/>
        <mxCell id="1" parent="0"/>
        <!-- TodoApp -->
        <mxCell id="2" value="TodoApp" style="swimlane;childLayout=stackLayout;horizontal=1;startSize=20;" vertex="1" parent="1">
          <mxGeometry x="40" y="40" width="180" height="180" as="geometry"/>
        </mxCell>
        <mxCell id="3" value="&lt;u&gt;- Menu : Menu&lt;/u&gt;&#xa;&lt;u&gt;- List : TodoList&lt;/u&gt;&#xa;&lt;u&gt;- Draw : ScreenDraw&lt;/u&gt;&#xa;&lt;u&gt;- File : FileHandle&lt;/u&gt;&#xa;&lt;u&gt;- CurrentSortMode : SortMode&lt;/u&gt;" style="text;html=1;align=left;verticalAlign=top;spacingLeft=10;spacingTop=5;" vertex="1" parent="2">
          <mxGeometry x="0" y="20" width="180" height="80" as="geometry"/>
        </mxCell>
        <mxCell id="4" value="&lt;u&gt;+ Run() : void&lt;/u&gt;&#xa;&lt;u&gt;- Handle(action : char) : bool&lt;/u&gt;" style="text;html=1;align=left;verticalAlign=top;spacingLeft=10;spacingTop=5;" vertex="1" parent="2">
          <mxGeometry x="0" y="100" width="180" height="60" as="geometry"/>
        </mxCell>
        <!-- Menu -->
        <mxCell id="5" value="Menu" style="swimlane;childLayout=stackLayout;horizontal=1;startSize=20;" vertex="1" parent="1">
          <mxGeometry x="260" y="40" width="180" height="140" as="geometry"/>
        </mxCell>
        <mxCell id="6" value="&lt;u&gt;- Options : Dictionary&lt;char, string&gt;&lt;/u&gt;" style="text;html=1;align=left;verticalAlign=top;spacingLeft=10;spacingTop=5;" vertex="1" parent="5">
          <mxGeometry x="0" y="20" width="180" height="30" as="geometry"/>
        </mxCell>
        <mxCell id="7" value="&lt;u&gt;+ GetAction(sortMode : SortMode) : char&lt;/u&gt;&#xa;&lt;u&gt;+ GetMenuText(sortMode : SortMode) : string&lt;/u&gt;&#xa;&lt;u&gt;+ HandleInput(sortMode : SortMode) : char&lt;/u&gt;" style="text;html=1;align=left;verticalAlign=top;spacingLeft=10;spacingTop=5;" vertex="1" parent="5">
          <mxGeometry x="0" y="50" width="180" height="60" as="geometry"/>
        </mxCell>
        <!-- TodoList -->
        <mxCell id="8" value="TodoList" style="swimlane;childLayout=stackLayout;horizontal=1;startSize=20;" vertex="1" parent="1">
          <mxGeometry x="40" y="260" width="200" height="180" as="geometry"/>
        </mxCell>
        <mxCell id="9" value="&lt;u&gt;+ Items : List&lt;TodoItem&gt;&lt;/u&gt;" style="text;html=1;align=left;verticalAlign=top;spacingLeft=10;spacingTop=5;" vertex="1" parent="8">
          <mxGeometry x="0" y="20" width="200" height="20" as="geometry"/>
        </mxCell>
        <mxCell id="10" value="&lt;u&gt;+ AddItem(item : TodoItem) : void&lt;/u&gt;&#xa;&lt;u&gt;+ RemoveItem(index : int) : void&lt;/u&gt;&#xa;&lt;u&gt;+ MarkCompleted(index : int, completed : bool) : void&lt;/u&gt;&#xa;&lt;u&gt;+ ToggleCompletion(index : int) : void&lt;/u&gt;&#xa;&lt;u&gt;+ GetSortedItems(mode : SortMode) : IEnumerable&lt;TodoItem&gt;&lt;/u&gt;&#xa;&lt;u&gt;+ GetActualIndexFromSortedDisplayIndex(displayIndex : int, mode : SortMode) : int?&lt;/u&gt;" style="text;html=1;align=left;verticalAlign=top;spacingLeft=10;spacingTop=5;" vertex="1" parent="8">
          <mxGeometry x="0" y="40" width="200" height="120" as="geometry"/>
        </mxCell>
        <!-- TodoItem -->
        <mxCell id="11" value="TodoItem" style="swimlane;childLayout=stackLayout;horizontal=1;startSize=20;" vertex="1" parent="1">
          <mxGeometry x="270" y="260" width="200" height="120" as="geometry"/>
        </mxCell>
        <mxCell id="12" value="&lt;u&gt;+ Description : string&lt;/u&gt;&#xa;&lt;u&gt;+ IsCompleted : bool&lt;/u&gt;&#xa;&lt;u&gt;+ CreatedDate : DateTime&lt;/u&gt;&#xa;&lt;u&gt;+ CompletedDate : DateTime?&lt;/u&gt;" style="text;html=1;align=left;verticalAlign=top;spacingLeft=10;spacingTop=5;" vertex="1" parent="11">
          <mxGeometry x="0" y="20" width="200" height="60" as="geometry"/>
        </mxCell>
        <mxCell id="13" value="&lt;u&gt;+ MarkCompleted(completed : bool) : void&lt;/u&gt;" style="text;html=1;align=left;verticalAlign=top;spacingLeft=10;spacingTop=5;" vertex="1" parent="11">
          <mxGeometry x="0" y="80" width="200" height="20" as="geometry"/>
        </mxCell>
        <!-- ScreenDraw -->
        <mxCell id="14" value="ScreenDraw" style="swimlane;childLayout=stackLayout;horizontal=1;startSize=20;" vertex="1" parent="1">
          <mxGeometry x="500" y="40" width="200" height="180" as="geometry"/>
        </mxCell>
        <mxCell id="15" value="&lt;u&gt;+ DrawScreen(todoList : TodoList, menu : Menu, sortMode : SortMode) : void&lt;/u&gt;&#xa;&lt;u&gt;+ ShowDialog(title : string, message : string) : string&lt;/u&gt;&#xa;&lt;u&gt;+ ShowMessageDialog(title : string, message : string) : void&lt;/u&gt;" style="text;html=1;align=left;verticalAlign=top;spacingLeft=10;spacingTop=5;" vertex="1" parent="14">
          <mxGeometry x="0" y="20" width="200" height="100" as="geometry"/>
        </mxCell>
        <!-- FileHandle -->
        <mxCell id="16" value="FileHandle" style="swimlane;childLayout=stackLayout;horizontal=1;startSize=20;" vertex="1" parent="1">
          <mxGeometry x="500" y="260" width="200" height="120" as="geometry"/>
        </mxCell>
        <mxCell id="17" value="&lt;u&gt;+ FileName : string&lt;/u&gt;&#xa;&lt;u&gt;+ FileExists : bool&lt;/u&gt;" style="text;html=1;align=left;verticalAlign=top;spacingLeft=10;spacingTop=5;" vertex="1" parent="16">
          <mxGeometry x="0" y="20" width="200" height="30" as="geometry"/>
        </mxCell>
        <mxCell id="18" value="&lt;u&gt;+ SaveAsJSON(list : TodoList) : void&lt;/u&gt;&#xa;&lt;u&gt;+ ReadJSON() : TodoList?&lt;/u&gt;" style="text;html=1;align=left;verticalAlign=top;spacingLeft=10;spacingTop=5;" vertex="1" parent="16">
          <mxGeometry x="0" y="50" width="200" height="40" as="geometry"/>
        </mxCell>
        <!-- Enum SortMode -->
        <mxCell id="19" value="&lt;&lt;enum&gt;&gt;&#xa;SortMode&#xa;Date&#xa;Alphabetic" style="text;html=1;align=left;verticalAlign=top;shape=rectangle;whiteSpace=wrap;rounded=1;fillColor=#fff2cc;" vertex="1" parent="1">
          <mxGeometry x="740" y="40" width="120" height="60" as="geometry"/>
        </mxCell>
        <!-- Relationships -->
        <mxCell id="20" style="endArrow=block;endFill=1;" edge="1" parent="1" source="2" target="5">
          <mxGeometry relative="1" as="geometry"/>
        </mxCell>
        <mxCell id="21" style="endArrow=block;endFill=1;" edge="1" parent="1" source="2" target="8">
          <mxGeometry relative="1" as="geometry"/>
        </mxCell>
        <mxCell id="22" style="endArrow=block;endFill=1;" edge="1" parent="1" source="2" target="14">
          <mxGeometry relative="1" as="geometry"/>
        </mxCell>
        <mxCell id="23" style="endArrow=block;endFill=1;" edge="1" parent="1" source="2" target="16">
          <mxGeometry relative="1" as="geometry"/>
        </mxCell>
        <mxCell id="24" style="endArrow=open;endFill=0;dashed=1;" edge="1" parent="1" source="8" target="11">
          <mxGeometry relative="1" as="geometry"/>
        </mxCell>
      </root>
    </mxGraphModel>
  </diagram>
</mxfile>